{"title":"Growing Out 2009 DVDRip Xvid LKRG","uid":10999326,"size":860485327,"categoryP":"video","categoryS":"movies","magnet":"?xt=urn:btih:7f0442edf66bd199dbcd5d35910768a8a8d95bf9&amp;dn=Growing+Out+2009+DVDRip+Xvid+LKRG&amp;tr=udp%3A%2F%2Ftracker.openbittorrent.com%3A80&amp;tr=udp%3A%2F%2Fopen.demonii.com%3A1337&amp;tr=udp%3A%2F%2Ftracker.coppersurfer.tk%3A6969&amp;tr=udp%3A%2F%2Fexodus.desync.com%3A6969","seeders":1,"leechers":1,"uploader":".BONE.","files":2,"time":1410117450,"description":"PLOT\n\nA troubled songwriter discovers a human growing out of his basement floor.\n &lt;a href=&quot;\nhttp://www.imdb.com/title/tt0843852/&quot; rel=&quot;nofollow&quot; target=&quot;_NEW&quot;&gt;\nhttp://www.imdb.com/title/tt0843852/&lt;/a&gt;\n\nRuntime ..........: 1h 44mn\nFile Size ........: 821 MB\nResolution .......: 720 x 480\nGenre ............: Comedy,Horror\nLanguage .........: English\nSubtitles ........: None\nComplete name : Growing Out 2009 DVDRip Xvid LKRGGrowingOut_LKRG.avi\nFormat : AVI\nFormat/Info : Audio Video Interleave\nFile size : 821 MiB\nDuration : 1h 44mn\nOverall bit rate : 1 094 Kbps\nWriting application : VirtualDubMod 1.5.10.2 (build 2540/release)\nWriting library : VirtualDubMod build 2540/release\nVideo\nID : 0\nFormat : MPEG-4 Visual\nFormat profile : Advanced Simple@L5\nFormat settings, BVOP : 2\nFormat settings, QPel : No\nFormat settings, GMC : No warppoints\nFormat settings, Matrix : Default (H.263)\nMuxing mode : Packed bitstream\nCodec ID : XVID\nCodec ID/Hint : XviD\nDuration : 1h 44mn\nBit rate : 859 Kbps\nWidth : 720 pixels\nHeight : 480 pixels\nDisplay aspect ratio : 16:9\nFrame rate : 29.970 fps\nStandard : NTSC\nColor space : YUV\nChroma subsampling : 4:2:0\nBit depth : 8 bits\nScan type : Progressive\nCompression mode : Lossy\nBits/(Pixel*Frame) : 0.083\nStream size : 644 MiB (78%)\nWriting library : XviD 1.2.1 (UTC 2008-12-04)\nAudio\nID : 1\nFormat : AC-3\nFormat/Info : Audio Coding 3\nMode extension : CM (complete main)\nFormat settings, Endianness : Big\nCodec ID : 2000\nDuration : 1h 44mn\nBit rate mode : Constant\nBit rate : 224 Kbps\nChannel(s) : 2 channels\nChannel positions : Front: L R\nSampling rate : 48.0 KHz\nBit depth : 16 bits\nCompression mode : Lossy\nStream size : 168 MiB (20%)\nAlignment : Split accross interleaves\nInterleave, duration : 33 ms (1.00 video frame)\nInterleave, preload duration : 500 ms\n &lt;a href=&quot;\nhttp://i.imgur.com/IEZSmRm.jpg&quot; rel=&quot;nofollow&quot; target=&quot;_NEW&quot;&gt;\nhttp://i.imgur.com/IEZSmRm.jpg&lt;/a&gt; &lt;a href=&quot;\nhttp://i.imgur.com/qcYDD0C.jpg&quot; rel=&quot;nofollow&quot; target=&quot;_NEW&quot;&gt;\nhttp://i.imgur.com/qcYDD0C.jpg&lt;/a&gt; &lt;a href=&quot;\nhttp://i.imgur.com/0UlqgvE.jpg&quot; rel=&quot;nofollow&quot; target=&quot;_NEW&quot;&gt;\nhttp://i.imgur.com/0UlqgvE.jpg&lt;/a&gt; &lt;a href=&quot;\nhttp://i.imgur.com/6hJ70uv.jpg&quot; rel=&quot;nofollow&quot; target=&quot;_NEW&quot;&gt;\nhttp://i.imgur.com/6hJ70uv.jpg&lt;/a&gt;","torrent":{"xt":"urn:btih:7f0442edf66bd199dbcd5d35910768a8a8d95bf9","amp;dn":"Growing+Out+2009+DVDRip+Xvid+LKRG","amp;tr":["udp%3A%2F%2Ftracker.openbittorrent.com%3A80","udp%3A%2F%2Fopen.demonii.com%3A1337","udp%3A%2F%2Ftracker.coppersurfer.tk%3A6969","udp%3A%2F%2Fexodus.desync.com%3A6969"],"infoHash":"7f0442edf66bd199dbcd5d35910768a8a8d95bf9","infoHashBuffer":{"type":"Buffer","data":[127,4,66,237,246,107,209,153,219,205,93,53,145,7,104,168,168,217,91,249]},"announce":[],"urlList":[]}}